<?xml version="1.0" encoding="UTF-8" standalone="no"?>
<svg
   xmlns:dc="http://purl.org/dc/elements/1.1/"
   xmlns:cc="http://creativecommons.org/ns#"
   xmlns:rdf="http://www.w3.org/1999/02/22-rdf-syntax-ns#"
   xmlns:svg="http://www.w3.org/2000/svg"
   xmlns="http://www.w3.org/2000/svg"
   xmlns:sodipodi="http://sodipodi.sourceforge.net/DTD/sodipodi-0.dtd"
   xmlns:inkscape="http://www.inkscape.org/namespaces/inkscape"
   width="24"
   height="24"
   fill-rule="evenodd"
   clip-rule="evenodd"
   version="1.1"
   id="svg4"
   sodipodi:docname="iconmonstr-eat-white.svg"
   inkscape:version="1.0.2 (e86c870879, 2021-01-15)">
  <metadata
     id="metadata10">
    <rdf:RDF>
      <cc:Work
         rdf:about="">
        <dc:format>image/svg+xml</dc:format>
        <dc:type
           rdf:resource="http://purl.org/dc/dcmitype/StillImage" />
      </cc:Work>
    </rdf:RDF>
  </metadata>
  <defs
     id="defs8" />
  <sodipodi:namedview
     pagecolor="#ffffff"
     bordercolor="#666666"
     borderopacity="1"
     objecttolerance="10"
     gridtolerance="10"
     guidetolerance="10"
     inkscape:pageopacity="0"
     inkscape:pageshadow="2"
     inkscape:window-width="820"
     inkscape:window-height="480"
     id="namedview6"
     showgrid="false"
     inkscape:zoom="34.583333"
     inkscape:cx="12"
     inkscape:cy="12"
     inkscape:window-x="0"
     inkscape:window-y="0"
     inkscape:window-maximized="0"
     inkscape:current-layer="svg4" />
  <path
     d="M18.496 24h-.001c-.715 0-1.5-.569-1.5-1.5v-8.5s-1.172-.003-2.467 0c.802-6.996 3.103-14 4.66-14 .447 0 .804.357.807.851.01 1.395.003 16.612.001 21.649 0 .828-.672 1.5-1.5 1.5zm-11.505-12.449c0-.691-.433-.917-1.377-1.673-.697-.56-1.177-1.433-1.088-2.322.252-2.537.862-7.575.862-7.575h.6v6h1.003l.223-6h.607l.173 6h1.003l.242-6h.562l.199 6h1.003v-6h.549s.674 5.005.951 7.55c.098.902-.409 1.792-1.122 2.356-.949.751-1.381.967-1.381 1.669v10.925c0 .828-.673 1.5-1.505 1.5-.831 0-1.504-.672-1.504-1.5v-10.93z"
     id="path2"
     style="fill:#ffffff;fill-opacity:1" />
</svg>
