<?xml version="1.0" encoding="UTF-8" standalone="no"?>
<svg
   xmlns:dc="http://purl.org/dc/elements/1.1/"
   xmlns:cc="http://creativecommons.org/ns#"
   xmlns:rdf="http://www.w3.org/1999/02/22-rdf-syntax-ns#"
   xmlns:svg="http://www.w3.org/2000/svg"
   xmlns="http://www.w3.org/2000/svg"
   xmlns:sodipodi="http://sodipodi.sourceforge.net/DTD/sodipodi-0.dtd"
   xmlns:inkscape="http://www.inkscape.org/namespaces/inkscape"
   version="1.1"
   id="Ebene_1"
   x="0px"
   y="0px"
   viewBox="0 0 131.32265 131.32264"
   xml:space="preserve"
   sodipodi:docname="ifgiLogoMaster.svg"
   width="131.32265"
   height="131.32265"
   inkscape:version="1.0.2 (e86c870879, 2021-01-15)"><metadata
   id="metadata133"><rdf:RDF><cc:Work
       rdf:about=""><dc:format>image/svg+xml</dc:format><dc:type
         rdf:resource="http://purl.org/dc/dcmitype/StillImage" /><dc:title></dc:title></cc:Work></rdf:RDF></metadata><defs
   id="defs131" /><sodipodi:namedview
   pagecolor="#ffffff"
   bordercolor="#666666"
   borderopacity="1"
   objecttolerance="10"
   gridtolerance="10"
   guidetolerance="10"
   inkscape:pageopacity="0"
   inkscape:pageshadow="2"
   inkscape:window-width="1920"
   inkscape:window-height="1001"
   id="namedview129"
   showgrid="false"
   inkscape:zoom="3.7212864"
   inkscape:cx="63.919567"
   inkscape:cy="62.923064"
   inkscape:window-x="-9"
   inkscape:window-y="-9"
   inkscape:window-maximized="1"
   inkscape:current-layer="layer1" />
<style
   type="text/css"
   id="style2">
	.st0{fill:#3E3E3B;}
	.st1{fill:#4C4C4A;}
	.st2{fill:#8ABE33;}
	.st3{fill:#3F3F3C;}
	.st4{fill:#7AB629;}
	.st5{fill:#FFFFFF;}
</style>






<g
   inkscape:groupmode="layer"
   id="layer1"
   inkscape:label="Layer 1"
   style="display:inline"
   transform="translate(-93.423437,-1.2510129)"><circle
     style="fill:#009dd2;fill-opacity:1;stroke:#009dd2;stroke-width:2.87244;stroke-linecap:round;stroke-linejoin:round;stroke-opacity:1"
     id="path958"
     cx="159.08476"
     cy="66.912338"
     r="64.225105" /></g><g
   inkscape:groupmode="layer"
   id="layer2"
   inkscape:label="Layer 2"
   transform="translate(-93.423437,-1.2510129)"><g
     id="g20"
     transform="translate(102.11523,20.960494)">
	<polygon
   class="st1"
   points="62.6,48.8 89.1,42.6 89.1,72.2 96.6,70.3 96.4,21.6 62.6,28.6 13.7,13.3 13.7,33.5 "
   id="polygon12"
   style="fill:#ffffff" />
	<polygon
   class="st2"
   points="62.6,78.9 84.5,73.4 84.5,48.7 62.6,54.2 13.7,38.9 13.7,63.6 62.6,78.9 "
   id="polygon14" />
	<polygon
   class="st3"
   points="89.1,72.2 96.6,70.3 96.4,21.6 62.6,28.6 62.6,48.8 89.1,42.6 "
   id="polygon16" />
	<polygon
   class="st4"
   points="84.5,73.4 84.5,48.7 62.6,54.2 62.6,78.9 "
   id="polygon18" />
<path
   style="fill:#ffffff;stroke:#ffffff;stroke-width:0.771895;stroke-linecap:round;stroke-linejoin:round;stroke-opacity:1"
   d="m 191.33663,78.150983 c 0,-13.988852 -0.0264,-14.811296 -0.47027,-14.676531 -0.57551,0.174714 -25.83762,6.074111 -26.01027,6.074111 -0.0677,0 -0.12317,-4.46878 -0.12317,-9.930622 v -9.930622 l 0.87336,-0.165446 c 0.48034,-0.091 8.00798,-1.646643 16.72808,-3.456994 l 15.85473,-3.291546 0.19817,12.917347 c 0.10899,7.104541 0.16945,17.989994 0.13436,24.189893 l -0.0638,11.272546 -2.74075,0.728509 c -1.50741,0.400681 -3.10968,0.809542 -3.56059,0.908581 l -0.81985,0.180069 z"
   id="path970"
   transform="translate(-102.11523,-20.960494)" /><path
   style="fill:#ffffff;stroke:#ffffff;stroke-width:0.771895;stroke-linecap:round;stroke-linejoin:round;stroke-opacity:1"
   d="M 164.73292,87.452255 V 75.258828 l 10.41307,-2.596854 c 5.72718,-1.42827 10.62468,-2.660766 10.88333,-2.73888 0.44306,-0.133808 0.47027,0.565126 0.47027,12.082199 v 12.224223 l -0.87336,0.27961 c -1.19757,0.38341 -20.27748,5.136556 -20.61898,5.136556 -0.18259,0 -0.27433,-4.077528 -0.27433,-12.193427 z"
   id="path972"
   transform="translate(-102.11523,-20.960494)" /><path
   style="fill:#ffffff;stroke:#ffffff;stroke-width:0.771895;stroke-linecap:round;stroke-linejoin:round;stroke-opacity:1"
   d="m 140.14465,92.020926 -24.18518,-7.573306 -0.0699,-12.152203 c -0.0385,-6.683712 0.0311,-12.152204 0.15466,-12.152204 0.12352,0 10.97785,3.364246 24.12074,7.476103 l 23.89616,7.476103 0.13436,12.20795 c 0.0739,6.714372 0.13437,12.226606 0.13437,12.249407 0,0.02279 -10.88334,-3.366532 -24.18519,-7.53185 z"
   id="path974"
   transform="translate(-102.11523,-20.960494)" /></g></g></svg>
