<?xml version="1.0" encoding="UTF-8" standalone="no"?>
<svg
   xmlns:dc="http://purl.org/dc/elements/1.1/"
   xmlns:cc="http://creativecommons.org/ns#"
   xmlns:rdf="http://www.w3.org/1999/02/22-rdf-syntax-ns#"
   xmlns:svg="http://www.w3.org/2000/svg"
   xmlns="http://www.w3.org/2000/svg"
   xmlns:sodipodi="http://sodipodi.sourceforge.net/DTD/sodipodi-0.dtd"
   xmlns:inkscape="http://www.inkscape.org/namespaces/inkscape"
   width="24"
   height="24"
   fill-rule="evenodd"
   clip-rule="evenodd"
   version="1.1"
   id="svg4"
   sodipodi:docname="iconmonstr-tree-master.svg"
   inkscape:version="1.0.2 (e86c870879, 2021-01-15)">
  <metadata
     id="metadata10">
    <rdf:RDF>
      <cc:Work
         rdf:about="">
        <dc:format>image/svg+xml</dc:format>
        <dc:type
           rdf:resource="http://purl.org/dc/dcmitype/StillImage" />
        <dc:title></dc:title>
      </cc:Work>
    </rdf:RDF>
  </metadata>
  <defs
     id="defs8" />
  <sodipodi:namedview
     pagecolor="#ffffff"
     bordercolor="#666666"
     borderopacity="1"
     objecttolerance="10"
     gridtolerance="10"
     guidetolerance="10"
     inkscape:pageopacity="0"
     inkscape:pageshadow="2"
     inkscape:window-width="1920"
     inkscape:window-height="1001"
     id="namedview6"
     showgrid="false"
     inkscape:zoom="21.666564"
     inkscape:cx="17.280849"
     inkscape:cy="14.393721"
     inkscape:window-x="-9"
     inkscape:window-y="-9"
     inkscape:window-maximized="1"
     inkscape:current-layer="svg4"
     inkscape:document-rotation="0" />
  <path
     d="M13 24h-2v-5.126c-.806-.208-1.513-.661-2.039-1.274-.602.257-1.265.4-1.961.4-2.76 0-5-2.24-5-5 0-1.422.595-2.707 1.55-3.617-.348-.544-.55-1.19-.55-1.883 0-1.878 1.483-3.413 3.341-3.496.823-2.332 3.047-4.004 5.659-4.004 2.612 0 4.836 1.672 5.659 4.004 1.858.083 3.341 1.618 3.341 3.496 0 .693-.202 1.339-.55 1.883.955.91 1.55 2.195 1.55 3.617 0 2.76-2.24 5-5 5-.696 0-1.359-.143-1.961-.4-.526.613-1.233 1.066-2.039 1.274v5.126z"
     id="path2"
     style="fill:#009dd2;fill-opacity:1" />
</svg>
