<?xml version="1.0" encoding="UTF-8" standalone="no"?>
<svg
   xmlns:dc="http://purl.org/dc/elements/1.1/"
   xmlns:cc="http://creativecommons.org/ns#"
   xmlns:rdf="http://www.w3.org/1999/02/22-rdf-syntax-ns#"
   xmlns:svg="http://www.w3.org/2000/svg"
   xmlns="http://www.w3.org/2000/svg"
   xmlns:sodipodi="http://sodipodi.sourceforge.net/DTD/sodipodi-0.dtd"
   xmlns:inkscape="http://www.inkscape.org/namespaces/inkscape"
   width="24"
   height="24"
   fill-rule="evenodd"
   clip-rule="evenodd"
   version="1.1"
   id="svg4"
   sodipodi:docname="iconmonstr-courses-master.svg"
   inkscape:version="1.0.2 (e86c870879, 2021-01-15)">
  <metadata
     id="metadata10">
    <rdf:RDF>
      <cc:Work
         rdf:about="">
        <dc:format>image/svg+xml</dc:format>
        <dc:type
           rdf:resource="http://purl.org/dc/dcmitype/StillImage" />
        <dc:title></dc:title>
      </cc:Work>
    </rdf:RDF>
  </metadata>
  <defs
     id="defs8" />
  <sodipodi:namedview
     pagecolor="#ffffff"
     bordercolor="#666666"
     borderopacity="1"
     objecttolerance="10"
     gridtolerance="10"
     guidetolerance="10"
     inkscape:pageopacity="0"
     inkscape:pageshadow="2"
     inkscape:window-width="1920"
     inkscape:window-height="1001"
     id="namedview6"
     showgrid="false"
     inkscape:zoom="34.583333"
     inkscape:cx="12"
     inkscape:cy="12"
     inkscape:window-x="-9"
     inkscape:window-y="-9"
     inkscape:window-maximized="1"
     inkscape:current-layer="svg4"
     inkscape:document-rotation="0" />
  <path
     d="M16 24h-6v-1c0-1.105.895-2 2-2h2c.53 0 1.039.211 1.414.586s.586.884.586 1.414v1zm8 0h-6v-1c0-1.105.895-2 2-2h2c.53 0 1.039.211 1.414.586s.586.884.586 1.414v1zm-17.241-15c.649 0 1.293-.213 1.692-.436.755-.42 2.695-1.643 3.485-2.124.216-.131.495-.083.654.113l.008.011c.165.204.146.499-.043.68-.622.597-2.443 2.328-3.37 3.213-.522.499-.822 1.183-.853 1.904-.095 2.207-.261 6.912-.331 8.833-.017.45-.387.806-.837.806h-.001c-.444 0-.786-.347-.836-.788-.111-.981-.329-3.28-.426-4.212-.04-.384-.28-.613-.585-.615-.304-.001-.523.226-.549.609-.061.921-.265 3.248-.341 4.22-.034.442-.397.786-.84.786h-.001c-.452 0-.824-.357-.842-.808-.097-2.342-.369-8.964-.369-8.964l-1.287 2.33c-.14.253-.445.364-.715.26h-.001c-.279-.108-.43-.411-.349-.698l1.244-4.393c.122-.43.515-.727.962-.727h4.531zm6.241 7c1.242 0 2.25 1.008 2.25 2.25s-1.008 2.25-2.25 2.25-2.25-1.008-2.25-2.25 1.008-2.25 2.25-2.25zm8 0c1.242 0 2.25 1.008 2.25 2.25s-1.008 2.25-2.25 2.25-2.25-1.008-2.25-2.25 1.008-2.25 2.25-2.25zm3-1h-15v-1h8v-1h3v1h3v-13h-22v7l-1 2.745v-10.745h24v15zm-6-6h-4v-1h4v1zm-12.626-5c1.241 0 2.25 1.008 2.25 2.25s-1.009 2.25-2.25 2.25c-1.242 0-2.25-1.008-2.25-2.25s1.008-2.25 2.25-2.25zm15.626 3h-7v-1h7v1zm0-2h-7v-1h7v1z"
     id="path2"
     style="fill:#009dd2;fill-opacity:1" />
</svg>
