<?xml version="1.0" encoding="UTF-8" standalone="no"?>
<svg
   xmlns:dc="http://purl.org/dc/elements/1.1/"
   xmlns:cc="http://creativecommons.org/ns#"
   xmlns:rdf="http://www.w3.org/1999/02/22-rdf-syntax-ns#"
   xmlns:svg="http://www.w3.org/2000/svg"
   xmlns="http://www.w3.org/2000/svg"
   xmlns:sodipodi="http://sodipodi.sourceforge.net/DTD/sodipodi-0.dtd"
   xmlns:inkscape="http://www.inkscape.org/namespaces/inkscape"
   width="24"
   height="24"
   fill-rule="evenodd"
   clip-rule="evenodd"
   version="1.1"
   id="svg4"
   sodipodi:docname="iconmonstr-fast-food-master.svg"
   inkscape:version="1.0.2 (e86c870879, 2021-01-15)">
  <metadata
     id="metadata10">
    <rdf:RDF>
      <cc:Work
         rdf:about="">
        <dc:format>image/svg+xml</dc:format>
        <dc:type
           rdf:resource="http://purl.org/dc/dcmitype/StillImage" />
        <dc:title></dc:title>
      </cc:Work>
    </rdf:RDF>
  </metadata>
  <defs
     id="defs8" />
  <sodipodi:namedview
     pagecolor="#ffffff"
     bordercolor="#666666"
     borderopacity="1"
     objecttolerance="10"
     gridtolerance="10"
     guidetolerance="10"
     inkscape:pageopacity="0"
     inkscape:pageshadow="2"
     inkscape:window-width="1920"
     inkscape:window-height="1001"
     id="namedview6"
     showgrid="false"
     inkscape:zoom="19.488965"
     inkscape:cx="23.889582"
     inkscape:cy="18.190751"
     inkscape:window-x="-9"
     inkscape:window-y="-9"
     inkscape:window-maximized="1"
     inkscape:current-layer="svg4"
     inkscape:document-rotation="0" />
  <path
     d="M5.624 3.896c-.917-1.419-.036-3.774 2.084-3.895 1.001-.034 5.603.891 9.132 3.588 1.07.818 2.036 1.767 2.881 2.816 2.685 3.332 4.279 8.261 4.279 9.677 0 1.669-2.009 2.887-3.653 2.185l-20.347 5.733 5.624-20.104zm-2.737 17.212l16.145-4.547c-1.975-6.675-4.971-9.905-11.62-11.627l-4.525 16.174zm3.616-5.11c.83 0 1.502.674 1.502 1.501 0 .829-.672 1.501-1.502 1.501-.829 0-1.5-.672-1.5-1.501 0-.827.671-1.501 1.5-1.501m4.194-.972c.798.276 1.22 1.147.945 1.945-.276.798-1.148 1.22-1.945.945 0 0-.47-.166-.32-.599.149-.432.62-.268.62-.268.319.11.668-.059.778-.377.11-.32-.059-.668-.378-.78 0 0-.481-.127-.319-.594.147-.424.619-.272.619-.272m-3.04-12.094c7.157 1.773 11.111 5.485 13.315 13.068.211.726 1.276.356 1.111-.25-2.22-8.142-6.831-12.522-14.128-13.938-.641-.125-.941.961-.298 1.12m6.352 9.067c1.104 0 2 .897 2 2.001 0 1.105-.896 2-2 2-1.105 0-2.002-.895-2.002-2 0-1.104.897-2.001 2.002-2.001m-5.837 2.99c-.814-.192-1.32-1.009-1.128-1.822.193-.814 1.01-1.319 1.823-1.127 0 0 .48.116.377.558-.105.442-.584.327-.584.327-.327-.077-.653.125-.729.451-.078.325.124.652.449.729 0 0 .487.078.375.554-.103.433-.583.33-.583.33m1.834-7.581c1.104 0 2.001.897 2.001 2 0 1.104-.897 2-2.001 2-1.105 0-2.001-.896-2.001-2 0-1.103.896-2 2.001-2"
     id="path2"
     style="fill:#009dd2;fill-opacity:1" />
</svg>
