<?xml version="1.0" encoding="UTF-8" standalone="no"?>
<svg
   xmlns:dc="http://purl.org/dc/elements/1.1/"
   xmlns:cc="http://creativecommons.org/ns#"
   xmlns:rdf="http://www.w3.org/1999/02/22-rdf-syntax-ns#"
   xmlns:svg="http://www.w3.org/2000/svg"
   xmlns="http://www.w3.org/2000/svg"
   xmlns:sodipodi="http://sodipodi.sourceforge.net/DTD/sodipodi-0.dtd"
   xmlns:inkscape="http://www.inkscape.org/namespaces/inkscape"
   width="24"
   height="24"
   viewBox="0 0 24 24"
   version="1.1"
   id="svg4"
   sodipodi:docname="iconmonstr-layer.svg"
   inkscape:version="1.0.2 (e86c870879, 2021-01-15)">
  <metadata
     id="metadata10">
    <rdf:RDF>
      <cc:Work
         rdf:about="">
        <dc:format>image/svg+xml</dc:format>
        <dc:type
           rdf:resource="http://purl.org/dc/dcmitype/StillImage" />
      </cc:Work>
    </rdf:RDF>
  </metadata>
  <defs
     id="defs8" />
  <sodipodi:namedview
     pagecolor="#ffffff"
     bordercolor="#666666"
     borderopacity="1"
     objecttolerance="10"
     gridtolerance="10"
     guidetolerance="10"
     inkscape:pageopacity="0"
     inkscape:pageshadow="2"
     inkscape:window-width="1920"
     inkscape:window-height="1001"
     id="namedview6"
     showgrid="false"
     inkscape:zoom="34.583333"
     inkscape:cx="12"
     inkscape:cy="12"
     inkscape:window-x="-9"
     inkscape:window-y="-9"
     inkscape:window-maximized="1"
     inkscape:current-layer="svg4" />
  <path
     d="M22 6v16h-16v-16h16zm2-2h-20v20h20v-20zm-24-4v20h2v-18h18v-2h-20zm19 14.673v-1.347l-.728-.259c-.578-.206-.858-.869-.592-1.43l.332-.697-.952-.952-.697.332c-.559.265-1.224-.012-1.43-.592l-.26-.728h-1.347l-.259.728c-.206.578-.87.858-1.43.592l-.697-.332-.952.952.332.697c.265.559-.012 1.224-.592 1.43l-.728.26v1.347l.728.259c.578.206.858.869.592 1.43l-.332.697.952.952.697-.332c.559-.265 1.224.012 1.43.592l.26.728h1.347l.257-.723c.203-.574.863-.867 1.427-.599l.702.333.952-.952-.332-.698c-.264-.557.01-1.223.593-1.43l.727-.258zm-5 1.161c-1.013 0-1.834-.821-1.834-1.834s.821-1.834 1.834-1.834 1.834.821 1.834 1.834-.821 1.834-1.834 1.834z"
     id="path2"
     style="fill:#ffffff;fill-opacity:1" />
</svg>
