<?xml version="1.0" encoding="UTF-8" standalone="no"?>
<svg
   xmlns:dc="http://purl.org/dc/elements/1.1/"
   xmlns:cc="http://creativecommons.org/ns#"
   xmlns:rdf="http://www.w3.org/1999/02/22-rdf-syntax-ns#"
   xmlns:svg="http://www.w3.org/2000/svg"
   xmlns="http://www.w3.org/2000/svg"
   xmlns:sodipodi="http://sodipodi.sourceforge.net/DTD/sodipodi-0.dtd"
   xmlns:inkscape="http://www.inkscape.org/namespaces/inkscape"
   width="24"
   height="24"
   fill-rule="evenodd"
   clip-rule="evenodd"
   version="1.1"
   id="svg4"
   sodipodi:docname="iconmonstr-globe-white.svg"
   inkscape:version="1.0.2 (e86c870879, 2021-01-15)">
  <metadata
     id="metadata10">
    <rdf:RDF>
      <cc:Work
         rdf:about="">
        <dc:format>image/svg+xml</dc:format>
        <dc:type
           rdf:resource="http://purl.org/dc/dcmitype/StillImage" />
        <dc:title></dc:title>
      </cc:Work>
    </rdf:RDF>
  </metadata>
  <defs
     id="defs8" />
  <sodipodi:namedview
     pagecolor="#ffffff"
     bordercolor="#666666"
     borderopacity="1"
     objecttolerance="10"
     gridtolerance="10"
     guidetolerance="10"
     inkscape:pageopacity="0"
     inkscape:pageshadow="2"
     inkscape:window-width="1920"
     inkscape:window-height="1001"
     id="namedview6"
     showgrid="false"
     inkscape:zoom="34.583333"
     inkscape:cx="12"
     inkscape:cy="12"
     inkscape:window-x="-9"
     inkscape:window-y="-9"
     inkscape:window-maximized="1"
     inkscape:current-layer="svg4"
     inkscape:document-rotation="0" />
  <path
     d="M15.246 17c-.927 3.701-2.547 6-3.246 7-.699-1-2.32-3.298-3.246-7h6.492zm7.664 0c-1.558 3.391-4.65 5.933-8.386 6.733 1.315-2.068 2.242-4.362 2.777-6.733h5.609zm-21.82 0h5.609c.539 2.386 1.47 4.678 2.777 6.733-3.736-.8-6.828-3.342-8.386-6.733zm14.55-2h-7.28c-.29-1.985-.29-4.014 0-6h7.281c.288 1.986.288 4.015-.001 6zm-9.299 0h-5.962c-.248-.958-.379-1.964-.379-3s.131-2.041.379-3h5.962c-.263 1.988-.263 4.012 0 6zm17.28 0h-5.963c.265-1.988.265-4.012.001-6h5.962c.247.959.379 1.964.379 3s-.132 2.042-.379 3zm-8.375-8h-6.492c.925-3.702 2.546-6 3.246-7 1.194 1.708 2.444 3.799 3.246 7zm-8.548-.001h-5.609c1.559-3.39 4.651-5.932 8.387-6.733-1.237 1.94-2.214 4.237-2.778 6.733zm16.212 0h-5.609c-.557-2.462-1.513-4.75-2.778-6.733 3.736.801 6.829 3.343 8.387 6.733z"
     id="path2"
     style="fill:#ffffff;fill-opacity:1" />
</svg>
