<?xml version="1.0" encoding="UTF-8" standalone="no"?>
<svg
   xmlns:dc="http://purl.org/dc/elements/1.1/"
   xmlns:cc="http://creativecommons.org/ns#"
   xmlns:rdf="http://www.w3.org/1999/02/22-rdf-syntax-ns#"
   xmlns:svg="http://www.w3.org/2000/svg"
   xmlns="http://www.w3.org/2000/svg"
   xmlns:xlink="http://www.w3.org/1999/xlink"
   xmlns:sodipodi="http://sodipodi.sourceforge.net/DTD/sodipodi-0.dtd"
   xmlns:inkscape="http://www.inkscape.org/namespaces/inkscape"
   width="8.9304037mm"
   height="14.192105mm"
   viewBox="0 0 8.9304037 14.192105"
   version="1.1"
   id="svg8"
   inkscape:version="1.0.2 (e86c870879, 2021-01-15)"
   sodipodi:docname="sights_primary_master.svg">
  <defs
     id="defs2">
    <linearGradient
       inkscape:collect="always"
       id="grey">
      <stop
         style="stop-color:#009dd2;stop-opacity:1"
         offset="0"
         id="stop887" />
      <stop
         style="stop-color:#009dd2;stop-opacity:1"
         offset="1"
         id="stop889" />
    </linearGradient>
    <radialGradient
       inkscape:collect="always"
       xlink:href="#grey"
       id="radialGradient863"
       cx="20.348436"
       cy="20.591892"
       fx="20.348436"
       fy="20.591892"
       r="4.3312402"
       gradientTransform="matrix(0,-1.6235028,1.2125743,-3.0838448e-8,-4.6207629,52.362977)"
       gradientUnits="userSpaceOnUse" />
  </defs>
  <sodipodi:namedview
     id="base"
     pagecolor="#ffffff"
     bordercolor="#666666"
     borderopacity="1.0"
     inkscape:pageopacity="0.0"
     inkscape:pageshadow="2"
     inkscape:zoom="9.0680549"
     inkscape:cx="25.287439"
     inkscape:cy="24.717829"
     inkscape:document-units="mm"
     inkscape:current-layer="layer1"
     inkscape:document-rotation="0"
     showgrid="false"
     inkscape:window-width="1920"
     inkscape:window-height="1001"
     inkscape:window-x="-9"
     inkscape:window-y="-9"
     inkscape:window-maximized="1" />
  <metadata
     id="metadata5">
    <rdf:RDF>
      <cc:Work
         rdf:about="">
        <dc:format>image/svg+xml</dc:format>
        <dc:type
           rdf:resource="http://purl.org/dc/dcmitype/StillImage" />
        <dc:title></dc:title>
      </cc:Work>
    </rdf:RDF>
  </metadata>
  <g
     inkscape:label="Layer 1"
     inkscape:groupmode="layer"
     id="layer1"
     transform="translate(-15.883234,-15.664463)">
    <path
       style="mix-blend-mode:normal;fill:url(#radialGradient863);fill-opacity:1.0;fill-rule:nonzero;stroke:none;stroke-width:0.264583px;stroke-linecap:butt;stroke-linejoin:miter;stroke-opacity:1"
       d="m 20.348436,29.626897 c 0,0 9.745291,-13.830143 0,-13.830143 -9.745291,0 0,13.830143 0,13.830143 z"
       id="path855" />
    <g
       style="clip-rule:evenodd;fill-rule:evenodd"
       id="g877"
       transform="matrix(0.24391592,0,0,0.24391592,17.493347,16.807725)" />
    <g
       style="clip-rule:evenodd;fill-rule:evenodd"
       id="g898"
       transform="matrix(0.26458333,0,0,0.26458333,17.230749,16.807736)">
      <path
         d="M 12,0 C 18.623,0 24,5.377 24,12 24,18.623 18.623,24 12,24 5.377,24 0,18.623 0,12 0,5.377 5.377,0 12,0 Z m 1.476,14.955 c 0.988,-0.405 1.757,-1.211 2.116,-2.216 L 18,6 11.328,8.387 C 10.322,8.747 9.517,9.518 9.112,10.506 L 6.047,18 Z m -0.122,-4.286 c 0.551,0.551 0.551,1.446 0,1.996 -0.551,0.551 -1.445,0.551 -1.996,0 -0.551,-0.55 -0.551,-1.445 0,-1.996 0.551,-0.551 1.445,-0.551 1.996,0 z"
         id="path2"
         style="fill:#ffffff;fill-opacity:1" />
    </g>
  </g>
</svg>
