<?xml version="1.0" encoding="UTF-8" standalone="no"?>
<svg
   xmlns:dc="http://purl.org/dc/elements/1.1/"
   xmlns:cc="http://creativecommons.org/ns#"
   xmlns:rdf="http://www.w3.org/1999/02/22-rdf-syntax-ns#"
   xmlns:svg="http://www.w3.org/2000/svg"
   xmlns="http://www.w3.org/2000/svg"
   xmlns:xlink="http://www.w3.org/1999/xlink"
   xmlns:sodipodi="http://sodipodi.sourceforge.net/DTD/sodipodi-0.dtd"
   xmlns:inkscape="http://www.inkscape.org/namespaces/inkscape"
   width="8.9304037mm"
   height="14.192105mm"
   viewBox="0 0 8.9304037 14.192105"
   version="1.1"
   id="svg8"
   inkscape:version="1.0.2 (e86c870879, 2021-01-15)"
   sodipodi:docname="soccer_primary_master.svg">
  <defs
     id="defs2">
    <linearGradient
       inkscape:collect="always"
       id="grey">
      <stop
         style="stop-color:#009dd2;stop-opacity:1"
         offset="0"
         id="stop887" />
      <stop
         style="stop-color:#009dd2;stop-opacity:1"
         offset="1"
         id="stop889" />
    </linearGradient>
    <radialGradient
       inkscape:collect="always"
       xlink:href="#grey"
       id="radialGradient863"
       cx="20.348436"
       cy="20.591892"
       fx="20.348436"
       fy="20.591892"
       r="4.3312402"
       gradientTransform="matrix(0,-1.6235028,1.2125743,-3.0838448e-8,-4.6207629,52.362977)"
       gradientUnits="userSpaceOnUse" />
  </defs>
  <sodipodi:namedview
     id="base"
     pagecolor="#ffffff"
     bordercolor="#666666"
     borderopacity="1.0"
     inkscape:pageopacity="0.0"
     inkscape:pageshadow="2"
     inkscape:zoom="9.0680549"
     inkscape:cx="25.287439"
     inkscape:cy="24.717829"
     inkscape:document-units="mm"
     inkscape:current-layer="layer1"
     inkscape:document-rotation="0"
     showgrid="false"
     inkscape:window-width="1920"
     inkscape:window-height="1001"
     inkscape:window-x="-9"
     inkscape:window-y="-9"
     inkscape:window-maximized="1" />
  <metadata
     id="metadata5">
    <rdf:RDF>
      <cc:Work
         rdf:about="">
        <dc:format>image/svg+xml</dc:format>
        <dc:type
           rdf:resource="http://purl.org/dc/dcmitype/StillImage" />
        <dc:title></dc:title>
      </cc:Work>
    </rdf:RDF>
  </metadata>
  <g
     inkscape:label="Layer 1"
     inkscape:groupmode="layer"
     id="layer1"
     transform="translate(-15.883234,-15.664463)">
    <path
       style="mix-blend-mode:normal;fill:url(#radialGradient863);fill-opacity:1.0;fill-rule:nonzero;stroke:none;stroke-width:0.264583px;stroke-linecap:butt;stroke-linejoin:miter;stroke-opacity:1"
       d="m 20.348436,29.626897 c 0,0 9.745291,-13.830143 0,-13.830143 -9.745291,0 0,13.830143 0,13.830143 z"
       id="path855" />
    <g
       style="clip-rule:evenodd;fill-rule:evenodd"
       id="g877"
       transform="matrix(0.24391592,0,0,0.24391592,17.493347,16.807725)" />
    <g
       style="clip-rule:evenodd;fill-rule:evenodd"
       id="g906"
       transform="matrix(0.26458333,0,0,0.26458333,17.143084,16.661848)" />
    <g
       style="clip-rule:evenodd;fill-rule:evenodd"
       id="g914"
       transform="matrix(0.26458333,0,0,0.26458333,17.143217,16.749381)">
      <path
         d="m 17.422,20.394 c -0.177,-0.415 -0.219,-0.698 -0.289,-1.118 0.625,-0.697 1.189,-1.432 1.692,-2.204 0.58,-0.196 1.271,-0.438 2.281,-0.956 -0.795,1.756 -2.08,3.239 -3.684,4.278 m -8.181,1.212 c 1.039,-0.558 1.89,-1.193 2.831,-1.899 1.012,0.253 2.079,0.395 3.194,0.443 l 10e-4,0.007 c 0.083,0.435 0.205,0.803 0.362,1.153 -1.987,0.777 -4.182,0.93 -6.388,0.296 m -7.24,-9.619 1.273,1.217 C 3.08,14.28 3.026,15.273 3.04,16.418 2.381,15.084 2,13.588 2,12 L 2.001,11.987 M 13.372,2.105 12.614,3.842 C 10.475,4.402 9.23,4.967 7.4,5.949 L 4.537,5.363 C 6.665,2.974 9.874,1.623 13.372,2.105 M 11.568,13.874 C 10.485,13.148 9.627,12.41 8.102,11.147 L 8.648,7.571 c 1.446,-0.848 2.566,-1.239 4.477,-1.849 0.999,0.687 1.984,1.428 2.934,2.216 l -0.002,0.023 c -0.138,1.739 -0.42,3.066 -0.845,4.495 -1.196,0.524 -2.41,0.998 -3.644,1.418 M 6.81,20.535 C 6.255,20.196 5.738,19.807 5.261,19.371 5.005,17.45 4.9,15.481 5.258,13.506 l 0.001,-0.004 1.716,-0.745 c 1.211,1.126 2.346,2.004 3.676,2.928 l 0.063,2.525 C 9.391,19.256 8.345,19.948 6.81,20.535 m 15.108,-7.311 c -1,0.722 -1.776,1.225 -3.025,1.683 L 17.159,12.9 c 0.451,-1.449 0.738,-3 0.866,-4.727 l 2.499,-1.381 c 1.147,1.872 1.681,4.066 1.394,6.432 M 12,0 C 5.377,0 0,5.377 0,12 0,18.623 5.377,24 12,24 18.623,24 24,18.623 24,12 24,5.377 18.623,0 12,0"
         id="path2"
         style="fill:#ffffff;fill-opacity:1" />
    </g>
  </g>
</svg>
