<?xml version="1.0" encoding="UTF-8" standalone="no"?>
<svg
   xmlns:dc="http://purl.org/dc/elements/1.1/"
   xmlns:cc="http://creativecommons.org/ns#"
   xmlns:rdf="http://www.w3.org/1999/02/22-rdf-syntax-ns#"
   xmlns:svg="http://www.w3.org/2000/svg"
   xmlns="http://www.w3.org/2000/svg"
   xmlns:xlink="http://www.w3.org/1999/xlink"
   xmlns:sodipodi="http://sodipodi.sourceforge.net/DTD/sodipodi-0.dtd"
   xmlns:inkscape="http://www.inkscape.org/namespaces/inkscape"
   width="8.9304037mm"
   height="14.192105mm"
   viewBox="0 0 8.9304037 14.192105"
   version="1.1"
   id="svg8"
   inkscape:version="1.0.2 (e86c870879, 2021-01-15)"
   sodipodi:docname="nature_grey.svg">
  <defs
     id="defs2">
    <linearGradient
       inkscape:collect="always"
       id="grey">
      <stop
         style="stop-color:#3f3f3c;stop-opacity:1"
         offset="0"
         id="stop887" />
      <stop
         style="stop-color:#5c5c5a;stop-opacity:1"
         offset="1"
         id="stop889" />
    </linearGradient>
    <radialGradient
       inkscape:collect="always"
       xlink:href="#grey"
       id="radialGradient863"
       cx="20.348436"
       cy="20.591892"
       fx="20.348436"
       fy="20.591892"
       r="4.3312402"
       gradientTransform="matrix(0,-1.6235028,1.2125743,-3.0838448e-8,-4.6207629,52.362977)"
       gradientUnits="userSpaceOnUse" />
  </defs>
  <sodipodi:namedview
     id="base"
     pagecolor="#ffffff"
     bordercolor="#666666"
     borderopacity="1.0"
     inkscape:pageopacity="0.0"
     inkscape:pageshadow="2"
     inkscape:zoom="9.0680549"
     inkscape:cx="25.287439"
     inkscape:cy="24.717829"
     inkscape:document-units="mm"
     inkscape:current-layer="layer1"
     inkscape:document-rotation="0"
     showgrid="false"
     inkscape:window-width="1920"
     inkscape:window-height="1001"
     inkscape:window-x="-9"
     inkscape:window-y="-9"
     inkscape:window-maximized="1" />
  <metadata
     id="metadata5">
    <rdf:RDF>
      <cc:Work
         rdf:about="">
        <dc:format>image/svg+xml</dc:format>
        <dc:type
           rdf:resource="http://purl.org/dc/dcmitype/StillImage" />
        <dc:title></dc:title>
      </cc:Work>
    </rdf:RDF>
  </metadata>
  <g
     inkscape:label="Layer 1"
     inkscape:groupmode="layer"
     id="layer1"
     transform="translate(-15.883234,-15.664463)">
    <path
       style="mix-blend-mode:normal;fill:url(#radialGradient863);fill-opacity:1.0;fill-rule:nonzero;stroke:none;stroke-width:0.264583px;stroke-linecap:butt;stroke-linejoin:miter;stroke-opacity:1"
       d="m 20.348436,29.626897 c 0,0 9.745291,-13.830143 0,-13.830143 -9.745291,0 0,13.830143 0,13.830143 z"
       id="path855" />
    <g
       style="clip-rule:evenodd;fill-rule:evenodd"
       id="g877"
       transform="matrix(0.24391592,0,0,0.24391592,17.493347,16.807725)" />
    <g
       style="clip-rule:evenodd;fill-rule:evenodd"
       id="g906"
       transform="matrix(0.26458333,0,0,0.26458333,17.143084,16.661848)" />
    <g
       style="clip-rule:evenodd;fill-rule:evenodd"
       id="g934"
       transform="matrix(0.26458333,0,0,0.26458333,17.084862,16.807736)">
      <path
         d="M 13,24 H 11 V 18.874 C 10.194,18.666 9.487,18.213 8.961,17.6 8.359,17.857 7.696,18 7,18 4.24,18 2,15.76 2,13 2,11.578 2.595,10.293 3.55,9.383 3.202,8.839 3,8.193 3,7.5 3,5.622 4.483,4.087 6.341,4.004 7.164,1.672 9.388,0 12,0 14.612,0 16.836,1.672 17.659,4.004 19.517,4.087 21,5.622 21,7.5 21,8.193 20.798,8.839 20.45,9.383 21.405,10.293 22,11.578 22,13 c 0,2.76 -2.24,5 -5,5 -0.696,0 -1.359,-0.143 -1.961,-0.4 -0.526,0.613 -1.233,1.066 -2.039,1.274 z"
         id="path2-1"
         style="fill:#ffffff;fill-opacity:1" />
    </g>
  </g>
</svg>
